<?xml version="1.0" encoding="UTF-8" standalone="no"?>
<!-- Generator: Adobe Illustrator 15.1.0, SVG Export Plug-In . SVG Version: 6.00 Build 0)  -->

<svg
   version="1.1"
   x="0px"
   y="0px"
   width="226.771px"
   height="226.772px"
   viewBox="0 0 226.771 226.772"
   enable-background="new 0 0 226.771 226.772"
   xml:space="preserve"
   id="svg14"
   sodipodi:docname="logo2_light.svg"
   inkscape:version="1.3 (0e150ed6c4, 2023-07-21)"
   inkscape:export-filename="logo3_light.png"
   inkscape:export-xdpi="96"
   inkscape:export-ydpi="96"
   xmlns:inkscape="http://www.inkscape.org/namespaces/inkscape"
   xmlns:sodipodi="http://sodipodi.sourceforge.net/DTD/sodipodi-0.dtd"
   xmlns="http://www.w3.org/2000/svg"
   xmlns:svg="http://www.w3.org/2000/svg"><defs
   id="defs14" /><sodipodi:namedview
   id="namedview14"
   pagecolor="#ffffff"
   bordercolor="#000000"
   borderopacity="0.25"
   inkscape:showpageshadow="2"
   inkscape:pageopacity="0.0"
   inkscape:pagecheckerboard="0"
   inkscape:deskcolor="#d1d1d1"
   inkscape:zoom="1.2488149"
   inkscape:cx="-24.823535"
   inkscape:cy="184.57499"
   inkscape:window-width="1920"
   inkscape:window-height="1007"
   inkscape:window-x="0"
   inkscape:window-y="0"
   inkscape:window-maximized="1"
   inkscape:current-layer="svg14" />&#10;<g
   id="LT_Logo">&#10;	<g
   id="LWPOLYLINE_9_">&#10;		<path
   fill="#FBFAFF"
   d="M155.954,37.371c-4.942-8.561-14.074-13.832-23.958-13.832H94.777c-9.884,0-19.017,5.271-23.959,13.832    l-9.722,16.839l19.97,11.519l9.717-16.83c0.825-1.427,2.347-2.306,3.994-2.306h37.219c1.646,0,3.168,0.879,3.99,2.306    l18.611,32.233c0.823,1.426,0.823,3.183,0,4.61l-53.191,92.131c-0.824,1.428-2.347,2.307-3.993,2.307H78.804v23.053h18.609    c9.885,0,19.018-5.274,23.958-13.832l53.191-92.131c4.942-8.56,4.942-19.106,0-27.667L155.954,37.371z"
   id="path1" />&#10;	</g>&#10;	<g
   id="LWPOLYLINE_8_">&#10;		<path
   fill="#FBFAFF"
   d="M166.578,203.233c9.884,0,19.016-5.274,23.959-13.832l18.607-32.23c4.943-8.562,4.943-19.107,0-27.667    l-9.304-16.118l-19.966,11.528l9.304,16.118c0.823,1.425,0.823,3.181,0,4.607l-18.609,32.234    c-0.822,1.428-2.346,2.307-3.991,2.307h-37.219c-1.649,0-3.172-0.879-3.995-2.307L72.175,85.743c-0.825-1.427-0.825-3.185,0-4.61    l9.304-16.118L61.513,53.487l-9.304,16.115c-4.943,8.561-4.943,19.107,0,27.667l53.191,92.131    c4.94,8.558,14.075,13.832,23.959,13.832H166.578z"
   id="path2" />&#10;	</g>&#10;	<g
   id="LWPOLYLINE_7_">&#10;		<path
   fill="#FBFAFF"
   d="M17.626,129.503c-4.942,8.56-4.942,19.105,0,27.667l18.608,32.23c4.942,8.558,14.075,13.832,23.959,13.832    h19.611V180.18H60.193c-1.647,0-3.168-0.879-3.992-2.307l-18.61-32.234c-0.824-1.427-0.824-3.183,0-4.607l18.61-32.235    c0.823-1.426,2.345-2.305,3.992-2.305h106.385c1.646,0,3.169,0.878,3.991,2.305l9.573,16.581l20.313-10.928l-9.918-17.18    c-4.943-8.56-14.075-13.833-23.959-13.833H60.193c-9.884,0-19.017,5.273-23.959,13.833L17.626,129.503z"
   id="path3" />&#10;	</g>&#10;</g>&#10;<g
   id="LT_Shadow">&#10;	<path
   opacity="0.12"
   d="M105.4,189.401l-5.681-9.839c-0.689,0.398-1.482,0.618-2.306,0.618h-8.444l13.076,22.647   c4.112-0.698,7.978-2.319,11.335-4.693C110.174,195.866,107.429,192.916,105.4,189.401z"
   id="path4" />&#10;	<path
   opacity="0.12"
   d="M60.193,106.492c-0.823,0-1.615,0.219-2.304,0.617l5.562,9.633h26.62l-5.917-10.25H60.193z"
   id="path5" />&#10;	<path
   opacity="0.12"
   d="M178.137,85.992c-0.362,3.91-1.544,7.762-3.574,11.278l-5.681,9.84c0.689,0.398,1.276,0.974,1.688,1.688   l5.276,9.138l13.228-22.911C186.247,91.069,182.458,87.982,178.137,85.992z"
   id="path6" />&#10;</g>&#10;<g
   id="LT_Tints">&#10;	<g
   id="LWPOLYLINE_10_"
   opacity="0.6">&#10;		<linearGradient
   id="SVGID_1_"
   gradientUnits="userSpaceOnUse"
   x1="138.2959"
   y1="177.603"
   x2="138.2959"
   y2="23.5396">&#10;			<stop
   offset="0.15"
   style="stop-color:#5820E0;stop-opacity:0"
   id="stop6" />&#10;			<stop
   offset="0.5"
   style="stop-color:#5820E0;stop-opacity:0.1"
   id="stop7" />&#10;			<stop
   offset="0.85"
   style="stop-color:#5820E0;stop-opacity:0"
   id="stop8" />&#10;		</linearGradient>&#10;		<path
   fill="url(#SVGID_1_)"
   d="M174.563,69.603l-18.608-32.232c-4.942-8.561-14.074-13.832-23.958-13.832H98.323v23.054h33.673    c1.646,0,3.168,0.879,3.99,2.306l18.611,32.233c0.823,1.426,0.823,3.183,0,4.61l-39.88,69.075l13.465,22.785l46.38-80.333    C179.505,88.709,179.505,78.164,174.563,69.603z"
   id="path8" />&#10;	</g>&#10;	<g
   id="LWPOLYLINE_11_"
   opacity="0.6">&#10;		&#10;			<linearGradient
   id="SVGID_2_"
   gradientUnits="userSpaceOnUse"
   x1="138.373"
   y1="177.8882"
   x2="138.373"
   y2="23.8198"
   gradientTransform="matrix(-0.5 -0.866 0.866 -0.5 63.0704 283.3902)">&#10;			<stop
   offset="0.15"
   style="stop-color:#5820E0;stop-opacity:0"
   id="stop9" />&#10;			<stop
   offset="0.5"
   style="stop-color:#5820E0;stop-opacity:0.1"
   id="stop10" />&#10;			<stop
   offset="0.85"
   style="stop-color:#5820E0;stop-opacity:0"
   id="stop11" />&#10;		</linearGradient>&#10;		<path
   fill="url(#SVGID_2_)"
   d="M36.271,97.209L17.662,129.44c-4.943,8.561-4.941,19.104,0,27.664l16.836,29.162l19.965-11.527    l-16.837-29.161c-0.823-1.426-0.822-3.184,0.002-4.609l18.609-32.234c0.823-1.426,2.345-2.304,3.993-2.305l79.761,0l13-23.054    l-92.761,0.001C50.347,83.375,41.214,88.648,36.271,97.209z"
   id="path11" />&#10;	</g>&#10;	<g
   id="LWPOLYLINE_12_"
   opacity="0.6">&#10;		&#10;			<linearGradient
   id="SVGID_3_"
   gradientUnits="userSpaceOnUse"
   x1="138.5781"
   y1="177.6802"
   x2="138.5781"
   y2="23.6128"
   gradientTransform="matrix(-0.5 0.866 -0.866 -0.5 277.0858 86.5912)">&#10;			<stop
   offset="0.15"
   style="stop-color:#5820E0;stop-opacity:0"
   id="stop12" />&#10;			<stop
   offset="0.5"
   style="stop-color:#5820E0;stop-opacity:0.1"
   id="stop13" />&#10;			<stop
   offset="0.85"
   style="stop-color:#5820E0;stop-opacity:0"
   id="stop14" />&#10;		</linearGradient>&#10;		<path
   fill="url(#SVGID_3_)"
   d="M129.323,203.169l37.218,0.001c9.885,0,19.016-5.273,23.958-13.833l16.837-29.161l-19.966-11.527    l-16.836,29.162c-0.823,1.425-2.346,2.304-3.993,2.303l-37.221,0.001c-1.646,0-3.168-0.879-3.992-2.305l-39.881-69.075    l-26.465,0.269l46.381,80.333C110.305,197.897,119.438,203.169,129.323,203.169z"
   id="path14" />&#10;	</g>&#10;</g>&#10;<path
   id="text15"
   style="font-size:66.6667px;font-family:Poppins;-inkscape-font-specification:Poppins;letter-spacing:-4.35px;fill:#fbfaff;fill-opacity:1;stroke-width:0;stroke-linecap:round;stroke-linejoin:round;stroke-miterlimit:6;paint-order:fill markers stroke"
   d="m 26.629333,222.43022 v 41.39787 h 6.895268 v -17.94428 l 16.292458,17.94428 h 9.394969 l -19.624651,-20.39044 19.549174,-20.2449 h -9.62363 l -15.98832,18.02032 v -18.78285 z m 97.863537,0.0217 c -5.60738,0 -10.60754,2.2993 -13.33543,6.52599 v -5.78519 h -6.89528 v 40.63533 h 6.89528 v -22.46721 c 0,-8.74997 4.84975,-13.04979 11.89687,-13.04979 6.97135,0 11.59275,4.22553 11.59275,12.53057 v 22.98652 h 6.8198 v -23.95107 c 0,-11.64192 -7.35051,-17.42507 -16.97399,-17.42507 z m -45.369812,0.0739 c -11.745184,0 -20.989941,8.08348 -20.989941,20.91183 0,12.90251 8.94062,21.05955 20.685806,21.05955 11.820963,0 21.294077,-8.15704 21.294077,-21.05955 0,-12.82835 -9.168967,-20.91183 -20.989942,-20.91183 z m 100.800582,0 c -11.74519,0 -20.98995,8.08348 -20.98995,20.91183 0,12.90251 8.94062,21.05955 20.68581,21.05955 11.82097,0 21.29407,-8.15704 21.29407,-21.05955 0,-12.82835 -9.16898,-20.91183 -20.98993,-20.91183 z m -32.10984,0.66695 v 40.63531 h 6.89526 v -40.63531 z m -68.766224,5.19209 c 7.122887,0 14.016991,4.81978 14.016991,15.05279 0,10.30717 -7.046977,15.12666 -14.245644,15.12666 -7.198667,0 -13.639579,-4.81949 -13.639579,-15.12666 0,-10.23301 6.593797,-15.05279 13.868232,-15.05279 z m 100.800584,0 c 7.12286,0 14.01696,4.81978 14.01696,15.05279 0,10.30717 -7.04696,15.12666 -14.24562,15.12666 -7.19866,0 -13.63956,-4.81949 -13.63956,-15.12666 0,-10.23301 6.59379,-15.05279 13.86822,-15.05279 z" /></svg>
