<?xml version="1.0" encoding="UTF-8" standalone="no"?>
<!-- Generator: Adobe Illustrator 15.1.0, SVG Export Plug-In . SVG Version: 6.00 Build 0)  -->

<svg
   version="1.1"
   id="Layer_1"
   x="0px"
   y="0px"
   width="226.771px"
   height="226.771px"
   viewBox="0 0 226.771 226.771"
   enable-background="new 0 0 226.771 226.771"
   xml:space="preserve"
   sodipodi:docname="logo2_dark.svg"
   inkscape:version="1.3 (0e150ed6c4, 2023-07-21)"
   xmlns:inkscape="http://www.inkscape.org/namespaces/inkscape"
   xmlns:sodipodi="http://sodipodi.sourceforge.net/DTD/sodipodi-0.dtd"
   xmlns="http://www.w3.org/2000/svg"
   xmlns:svg="http://www.w3.org/2000/svg"><defs
   id="defs14" /><sodipodi:namedview
   id="namedview14"
   pagecolor="#ffffff"
   bordercolor="#000000"
   borderopacity="0.25"
   inkscape:showpageshadow="2"
   inkscape:pageopacity="0.0"
   inkscape:pagecheckerboard="0"
   inkscape:deskcolor="#d1d1d1"
   inkscape:zoom="0.47549194"
   inkscape:cx="593.06998"
   inkscape:cy="87.27803"
   inkscape:window-width="1536"
   inkscape:window-height="791"
   inkscape:window-x="0"
   inkscape:window-y="0"
   inkscape:window-maximized="1"
   inkscape:current-layer="Layer_1" />&#10;<g
   id="DK_Logo"
   transform="matrix(0.82288643,0,0,0.8239794,18.880955,-3.4638292)">&#10;	<g
   id="LWPOLYLINE_1_">&#10;		<path
   fill="#5820e0"
   d="M 155.954,37.371 C 151.013,28.809 141.88,23.539 131.996,23.539 H 94.777 c -9.884,0 -19.018,5.271 -23.959,13.832 l -9.722,16.839 19.97,11.519 9.717,-16.83 c 0.825,-1.427 2.347,-2.306 3.994,-2.306 h 37.219 c 1.646,0 3.168,0.879 3.99,2.306 l 18.611,32.233 c 0.822,1.426 0.822,3.183 0,4.61 l -53.191,92.131 c -0.824,1.428 -2.347,2.307 -3.993,2.307 H 78.804 v 23.053 h 18.608 c 9.885,0 19.019,-5.273 23.958,-13.832 L 174.561,97.27 c 4.941,-8.56 4.941,-19.105 0,-27.667 z"
   id="path1" />&#10;	</g>&#10;	<g
   id="LWPOLYLINE_2_">&#10;		<path
   fill="#5820e0"
   d="m 166.578,203.233 c 9.884,0 19.017,-5.273 23.959,-13.832 l 18.607,-32.229 c 4.942,-8.563 4.942,-19.107 0,-27.667 l -9.305,-16.118 -19.966,11.528 9.305,16.117 c 0.822,1.426 0.822,3.182 0,4.607 l -18.609,32.234 c -0.822,1.428 -2.346,2.307 -3.991,2.307 h -37.219 c -1.649,0 -3.172,-0.879 -3.995,-2.307 L 72.175,85.743 c -0.824,-1.428 -0.824,-3.186 0,-4.61 L 81.48,65.015 61.513,53.487 52.208,69.602 c -4.942,8.562 -4.942,19.107 0,27.667 L 105.4,189.4 c 4.939,8.559 14.075,13.832 23.959,13.832 z"
   id="path2" />&#10;	</g>&#10;	<g
   id="LWPOLYLINE_3_">&#10;		<path
   fill="#5820e0"
   d="m 17.626,129.503 c -4.941,8.56 -4.941,19.104 0,27.667 l 18.608,32.23 c 4.941,8.559 14.075,13.832 23.959,13.832 H 79.804 V 180.18 H 60.193 c -1.647,0 -3.168,-0.879 -3.992,-2.307 l -18.61,-32.234 c -0.823,-1.427 -0.823,-3.183 0,-4.607 l 18.61,-32.234 c 0.823,-1.426 2.345,-2.305 3.992,-2.305 h 106.385 c 1.646,0 3.169,0.878 3.991,2.305 l 9.573,16.581 20.313,-10.928 -9.918,-17.181 C 185.595,88.71 176.462,83.437 166.578,83.437 H 60.193 c -9.884,0 -19.018,5.273 -23.959,13.833 z"
   id="path3" />&#10;	</g>&#10;</g>&#10;<g
   id="LT_Shadow"
   opacity="0.18"
   transform="matrix(0.82288643,0,0,0.8239794,18.880955,-3.4638292)">&#10;	<path
   enable-background="new    "
   d="m 105.4,189.401 -5.681,-9.839 c -0.689,0.398 -1.482,0.618 -2.307,0.618 h -8.443 l 13.075,22.647 c 4.112,-0.698 7.979,-2.319 11.335,-4.693 -3.205,-2.268 -5.95,-5.218 -7.979,-8.733 z"
   id="path4" />&#10;	<path
   enable-background="new    "
   d="m 60.193,106.492 c -0.823,0 -1.615,0.219 -2.304,0.616 l 5.562,9.634 h 26.62 l -5.917,-10.25 z"
   id="path5" />&#10;	<path
   enable-background="new    "
   d="m 178.137,85.992 c -0.362,3.909 -1.545,7.762 -3.574,11.277 l -5.682,9.84 c 0.689,0.398 1.276,0.975 1.688,1.688 l 5.276,9.138 13.228,-22.911 c -2.826,-3.955 -6.615,-7.042 -10.936,-9.032 z"
   id="path6" />&#10;</g>&#10;<g
   id="DK_Tints"
   transform="matrix(0.82288643,0,0,0.8239794,18.880955,-3.4638292)">&#10;	<g
   id="LWPOLYLINE_6_"
   opacity="0.6">&#10;		&#10;			<linearGradient
   id="SVGID_1_"
   gradientUnits="userSpaceOnUse"
   x1="294.22729"
   y1="-230.5193"
   x2="294.22729"
   y2="-76.456802"
   gradientTransform="matrix(1,0,0,-1,-155.9297,-52.9175)">&#10;			<stop
   offset="0.15"
   style="stop-color:#FFFFFF;stop-opacity:0"
   id="stop6" />&#10;			<stop
   offset="0.5"
   style="stop-color:#FFFFFF;stop-opacity:0.1"
   id="stop7" />&#10;			<stop
   offset="0.85"
   style="stop-color:#FFFFFF;stop-opacity:0"
   id="stop8" />&#10;		</linearGradient>&#10;		<path
   fill="url(#SVGID_1_)"
   d="M 174.563,69.603 155.955,37.372 C 151.014,28.81 141.881,23.54 131.997,23.54 H 98.323 v 23.054 h 33.673 c 1.646,0 3.168,0.879 3.99,2.306 l 18.611,32.233 c 0.822,1.426 0.822,3.183 0,4.61 l -39.881,69.074 13.466,22.785 46.38,-80.333 c 4.943,-8.56 4.943,-19.105 10e-4,-27.666 z"
   id="path8"
   style="fill:url(#SVGID_1_)" />&#10;	</g>&#10;	<g
   id="LWPOLYLINE_5_"
   opacity="0.6">&#10;		&#10;			<linearGradient
   id="SVGID_2_"
   gradientUnits="userSpaceOnUse"
   x1="-248.3376"
   y1="71.518303"
   x2="-248.3376"
   y2="225.5847"
   gradientTransform="matrix(-0.5,-0.866,-0.866,0.5,85.6991,-176.2042)">&#10;			<stop
   offset="0.15"
   style="stop-color:#FFFFFF;stop-opacity:0"
   id="stop9" />&#10;			<stop
   offset="0.5"
   style="stop-color:#FFFFFF;stop-opacity:0.1"
   id="stop10" />&#10;			<stop
   offset="0.85"
   style="stop-color:#FFFFFF;stop-opacity:0"
   id="stop11" />&#10;		</linearGradient>&#10;		<path
   fill="url(#SVGID_2_)"
   d="m 36.271,97.209 -18.609,32.23 c -4.942,8.562 -4.94,19.104 0,27.664 l 16.836,29.162 19.965,-11.527 -16.837,-29.16 c -0.822,-1.427 -0.821,-3.185 0.002,-4.609 l 18.609,-32.234 c 0.823,-1.426 2.345,-2.304 3.993,-2.305 h 79.761 l 13,-23.054 -92.761,10e-4 C 50.347,83.375 41.214,88.648 36.271,97.209 Z"
   id="path11"
   style="fill:url(#SVGID_2_)" />&#10;	</g>&#10;	<g
   id="LWPOLYLINE_4_"
   opacity="0.6">&#10;		&#10;			<linearGradient
   id="SVGID_3_"
   gradientUnits="userSpaceOnUse"
   x1="285.0076"
   y1="390.5051"
   x2="285.0076"
   y2="544.57251"
   gradientTransform="matrix(-0.5,0.866,0.866,0.5,-141.7472,-324.3083)">&#10;			<stop
   offset="0.15"
   style="stop-color:#FFFFFF;stop-opacity:0"
   id="stop12" />&#10;			<stop
   offset="0.5"
   style="stop-color:#FFFFFF;stop-opacity:0.1"
   id="stop13" />&#10;			<stop
   offset="0.85"
   style="stop-color:#FFFFFF;stop-opacity:0"
   id="stop14" />&#10;		</linearGradient>&#10;		<path
   fill="url(#SVGID_3_)"
   d="m 129.323,203.169 37.218,10e-4 c 9.885,0 19.017,-5.273 23.958,-13.833 l 16.837,-29.161 -19.966,-11.527 -16.836,29.162 c -0.823,1.425 -2.346,2.305 -3.993,2.303 l -37.221,0.002 c -1.646,0 -3.168,-0.88 -3.992,-2.306 l -39.881,-69.075 -26.465,0.27 46.381,80.333 c 4.942,8.559 14.075,13.831 23.96,13.831 z"
   id="path14"
   style="fill:url(#SVGID_3_)" />&#10;	</g>&#10;</g>&#10;<path
   id="text15"
   style="font-size:66.6667px;font-family:Poppins;-inkscape-font-specification:Poppins;letter-spacing:-4.35px;opacity:1;fill:#000000;fill-opacity:1;stroke-width:0;stroke-linecap:round;stroke-linejoin:round;stroke-miterlimit:6;paint-order:fill markers stroke"
   d="M 230.27114,19.765558 V 159.05239 h 23.50688 V 98.67725 l 55.54322,60.37514 h 32.02873 L 274.44687,90.446934 341.09264,22.331159 H 308.28437 L 253.77802,82.96213 V 19.765558 Z m 333.63007,0.07306 c -19.1163,0 -36.16251,7.736217 -45.46227,21.957308 V 22.33112 h -23.50696 v 136.72123 h 23.50696 V 83.45939 c 0,-29.440058 16.53347,-43.907192 40.55805,-43.907192 23.76624,0 39.52126,14.217181 39.52126,42.160247 v 77.340185 h 23.2496 V 78.467125 c 0,-39.170291 -25.05889,-58.628228 -57.86664,-58.628228 z m -154.67184,0.248807 c -40.04093,0 -71.55756,27.197591 -71.55756,70.359703 0,43.411682 30.47976,70.856772 70.52072,70.856772 40.29922,0 72.5944,-27.44509 72.5944,-70.856772 0,-43.162112 -31.2583,-70.359703 -71.55756,-70.359703 z m 343.64287,0 c -40.04092,0 -71.5576,27.197591 -71.5576,70.359703 0,43.411682 30.4798,70.856772 70.52076,70.856772 40.29926,0 72.59435,-27.44509 72.59435,-70.856772 0,-43.162112 -31.25828,-70.359703 -71.55751,-70.359703 z M 643.40543,22.331436 V 159.05259 h 23.50688 V 22.331436 Z M 408.97204,39.80069 c 24.28289,0 47.78579,16.216567 47.78579,50.646441 0,34.679399 -24.02411,50.895019 -48.5653,50.895019 -24.54123,0 -46.49919,-16.21562 -46.49919,-50.895019 0,-34.429874 22.47916,-50.646441 47.2787,-50.646441 z m 343.64287,0 c 24.28281,0 47.78574,16.216567 47.78574,50.646441 0,34.679399 -24.02406,50.895019 -48.56525,50.895019 -24.54123,0 -46.49915,-16.21562 -46.49915,-50.895019 0,-34.429874 22.47913,-50.646441 47.27866,-50.646441 z" /></svg>
