<?xml version="1.0" encoding="UTF-8" standalone="no"?>
<!-- Generator: Adobe Illustrator 15.1.0, SVG Export Plug-In . SVG Version: 6.00 Build 0)  -->

<svg
   version="1.1"
   x="0px"
   y="0px"
   width="198.93175"
   height="179.694"
   viewBox="0 0 198.93175 179.694"
   enable-background="new 0 0 226.771 226.772"
   xml:space="preserve"
   id="svg14"
   sodipodi:docname="symbol_light.svg"
   inkscape:version="1.3 (0e150ed6c4, 2023-07-21)"
   xmlns:inkscape="http://www.inkscape.org/namespaces/inkscape"
   xmlns:sodipodi="http://sodipodi.sourceforge.net/DTD/sodipodi-0.dtd"
   xmlns="http://www.w3.org/2000/svg"
   xmlns:svg="http://www.w3.org/2000/svg"><defs
   id="defs14" /><sodipodi:namedview
   id="namedview14"
   pagecolor="#ffffff"
   bordercolor="#000000"
   borderopacity="0.25"
   inkscape:showpageshadow="2"
   inkscape:pageopacity="0.0"
   inkscape:pagecheckerboard="0"
   inkscape:deskcolor="#d1d1d1"
   inkscape:zoom="1.2488149"
   inkscape:cx="-38.436441"
   inkscape:cy="161.35298"
   inkscape:window-width="1920"
   inkscape:window-height="1007"
   inkscape:window-x="0"
   inkscape:window-y="0"
   inkscape:window-maximized="1"
   inkscape:current-layer="svg14" />&#10;<g
   id="LT_Logo"
   transform="translate(-13.9195,-23.539)">&#10;	<g
   id="LWPOLYLINE_9_">&#10;		<path
   fill="#fbfaff"
   d="M 155.954,37.371 C 151.012,28.81 141.88,23.539 131.996,23.539 H 94.777 c -9.884,0 -19.017,5.271 -23.959,13.832 l -9.722,16.839 19.97,11.519 9.717,-16.83 c 0.825,-1.427 2.347,-2.306 3.994,-2.306 h 37.219 c 1.646,0 3.168,0.879 3.99,2.306 l 18.611,32.233 c 0.823,1.426 0.823,3.183 0,4.61 l -53.191,92.131 c -0.824,1.428 -2.347,2.307 -3.993,2.307 H 78.804 v 23.053 h 18.609 c 9.885,0 19.018,-5.274 23.958,-13.832 L 174.562,97.27 c 4.942,-8.56 4.942,-19.106 0,-27.667 z"
   id="path1" />&#10;	</g>&#10;	<g
   id="LWPOLYLINE_8_">&#10;		<path
   fill="#fbfaff"
   d="m 166.578,203.233 c 9.884,0 19.016,-5.274 23.959,-13.832 l 18.607,-32.23 c 4.943,-8.562 4.943,-19.107 0,-27.667 l -9.304,-16.118 -19.966,11.528 9.304,16.118 c 0.823,1.425 0.823,3.181 0,4.607 l -18.609,32.234 c -0.822,1.428 -2.346,2.307 -3.991,2.307 h -37.219 c -1.649,0 -3.172,-0.879 -3.995,-2.307 L 72.175,85.743 c -0.825,-1.427 -0.825,-3.185 0,-4.61 L 81.479,65.015 61.513,53.487 52.209,69.602 c -4.943,8.561 -4.943,19.107 0,27.667 L 105.4,189.4 c 4.94,8.558 14.075,13.832 23.959,13.832 h 37.219 z"
   id="path2" />&#10;	</g>&#10;	<g
   id="LWPOLYLINE_7_">&#10;		<path
   fill="#fbfaff"
   d="m 17.626,129.503 c -4.942,8.56 -4.942,19.105 0,27.667 l 18.608,32.23 c 4.942,8.558 14.075,13.832 23.959,13.832 H 79.804 V 180.18 H 60.193 c -1.647,0 -3.168,-0.879 -3.992,-2.307 l -18.61,-32.234 c -0.824,-1.427 -0.824,-3.183 0,-4.607 l 18.61,-32.235 c 0.823,-1.426 2.345,-2.305 3.992,-2.305 h 106.385 c 1.646,0 3.169,0.878 3.991,2.305 l 9.573,16.581 20.313,-10.928 -9.918,-17.18 C 185.594,88.71 176.462,83.437 166.578,83.437 H 60.193 c -9.884,0 -19.017,5.273 -23.959,13.833 z"
   id="path3" />&#10;	</g>&#10;</g>&#10;<g
   id="LT_Shadow"
   transform="translate(-13.9195,-23.539)">&#10;	<path
   opacity="0.12"
   d="m 105.4,189.401 -5.681,-9.839 c -0.689,0.398 -1.482,0.618 -2.306,0.618 h -8.444 l 13.076,22.647 c 4.112,-0.698 7.978,-2.319 11.335,-4.693 -3.206,-2.268 -5.951,-5.218 -7.98,-8.733 z"
   id="path4" />&#10;	<path
   opacity="0.12"
   d="m 60.193,106.492 c -0.823,0 -1.615,0.219 -2.304,0.617 l 5.562,9.633 h 26.62 l -5.917,-10.25 z"
   id="path5" />&#10;	<path
   opacity="0.12"
   d="m 178.137,85.992 c -0.362,3.91 -1.544,7.762 -3.574,11.278 l -5.681,9.84 c 0.689,0.398 1.276,0.974 1.688,1.688 l 5.276,9.138 13.228,-22.911 c -2.827,-3.956 -6.616,-7.043 -10.937,-9.033 z"
   id="path6" />&#10;</g>&#10;<g
   id="LT_Tints"
   transform="translate(-13.9195,-23.539)">&#10;	<g
   id="LWPOLYLINE_10_"
   opacity="0.6">&#10;		<linearGradient
   id="SVGID_1_"
   gradientUnits="userSpaceOnUse"
   x1="138.2959"
   y1="177.603"
   x2="138.2959"
   y2="23.5396">&#10;			<stop
   offset="0.15"
   style="stop-color:#5820E0;stop-opacity:0"
   id="stop6" />&#10;			<stop
   offset="0.5"
   style="stop-color:#5820E0;stop-opacity:0.1"
   id="stop7" />&#10;			<stop
   offset="0.85"
   style="stop-color:#5820E0;stop-opacity:0"
   id="stop8" />&#10;		</linearGradient>&#10;		<path
   fill="url(#SVGID_1_)"
   d="M 174.563,69.603 155.955,37.371 C 151.013,28.81 141.881,23.539 131.997,23.539 H 98.323 v 23.054 h 33.673 c 1.646,0 3.168,0.879 3.99,2.306 l 18.611,32.233 c 0.823,1.426 0.823,3.183 0,4.61 l -39.88,69.075 13.465,22.785 46.38,-80.333 c 4.943,-8.56 4.943,-19.105 10e-4,-27.666 z"
   id="path8"
   style="fill:url(#SVGID_1_)" />&#10;	</g>&#10;	<g
   id="LWPOLYLINE_11_"
   opacity="0.6">&#10;		&#10;			<linearGradient
   id="SVGID_2_"
   gradientUnits="userSpaceOnUse"
   x1="138.373"
   y1="177.8882"
   x2="138.373"
   y2="23.819799"
   gradientTransform="matrix(-0.5,-0.866,0.866,-0.5,63.0704,283.3902)">&#10;			<stop
   offset="0.15"
   style="stop-color:#5820E0;stop-opacity:0"
   id="stop9" />&#10;			<stop
   offset="0.5"
   style="stop-color:#5820E0;stop-opacity:0.1"
   id="stop10" />&#10;			<stop
   offset="0.85"
   style="stop-color:#5820E0;stop-opacity:0"
   id="stop11" />&#10;		</linearGradient>&#10;		<path
   fill="url(#SVGID_2_)"
   d="M 36.271,97.209 17.662,129.44 c -4.943,8.561 -4.941,19.104 0,27.664 l 16.836,29.162 19.965,-11.527 -16.837,-29.161 c -0.823,-1.426 -0.822,-3.184 0.002,-4.609 l 18.609,-32.234 c 0.823,-1.426 2.345,-2.304 3.993,-2.305 h 79.761 l 13,-23.054 -92.761,10e-4 C 50.347,83.375 41.214,88.648 36.271,97.209 Z"
   id="path11"
   style="fill:url(#SVGID_2_)" />&#10;	</g>&#10;	<g
   id="LWPOLYLINE_12_"
   opacity="0.6">&#10;		&#10;			<linearGradient
   id="SVGID_3_"
   gradientUnits="userSpaceOnUse"
   x1="138.57809"
   y1="177.68021"
   x2="138.57809"
   y2="23.612801"
   gradientTransform="matrix(-0.5,0.866,-0.866,-0.5,277.0858,86.5912)">&#10;			<stop
   offset="0.15"
   style="stop-color:#5820E0;stop-opacity:0"
   id="stop12" />&#10;			<stop
   offset="0.5"
   style="stop-color:#5820E0;stop-opacity:0.1"
   id="stop13" />&#10;			<stop
   offset="0.85"
   style="stop-color:#5820E0;stop-opacity:0"
   id="stop14" />&#10;		</linearGradient>&#10;		<path
   fill="url(#SVGID_3_)"
   d="m 129.323,203.169 37.218,10e-4 c 9.885,0 19.016,-5.273 23.958,-13.833 l 16.837,-29.161 -19.966,-11.527 -16.836,29.162 c -0.823,1.425 -2.346,2.304 -3.993,2.303 l -37.221,0.001 c -1.646,0 -3.168,-0.879 -3.992,-2.305 l -39.881,-69.075 -26.465,0.269 46.381,80.333 c 4.942,8.56 14.075,13.832 23.96,13.832 z"
   id="path14"
   style="fill:url(#SVGID_3_)" />&#10;	</g>&#10;</g>&#10;</svg>
